<?xml version="1.0" encoding="UTF-8" ?>
<!DOCTYPE svg PUBLIC "-//W3C//DTD SVG 1.1//EN" "http://www.w3.org/Graphics/SVG/1.1/DTD/svg11.dtd">
<svg width="1075pt" height="1418pt" viewBox="0 0 1075 1418" version="1.1" xmlns="http://www.w3.org/2000/svg">
<g id="#ffffffff">
<path fill="#ffffff" opacity="1.00" d=" M 226.36 1176.51 C 229.16 1175.40 232.69 1175.95 234.63 1178.38 C 236.41 1180.31 236.09 1183.07 236.10 1185.50 C 229.98 1185.48 223.86 1185.53 217.75 1185.48 C 219.38 1181.57 222.25 1177.95 226.36 1176.51 Z" />
<path fill="#ffffff" opacity="1.00" d=" M 336.35 1176.52 C 339.17 1175.40 342.72 1175.96 344.66 1178.41 C 346.41 1180.34 346.09 1183.08 346.10 1185.51 C 339.98 1185.48 333.86 1185.53 327.75 1185.48 C 329.38 1181.57 332.25 1177.96 336.35 1176.52 Z" />
<path fill="#ffffff" opacity="1.00" d=" M 606.32 1176.53 C 609.13 1175.40 612.68 1175.94 614.63 1178.38 C 616.41 1180.31 616.09 1183.07 616.10 1185.50 C 609.98 1185.48 603.86 1185.53 597.75 1185.48 C 599.38 1181.58 602.23 1177.97 606.32 1176.53 Z" />
<path fill="#ffffff" opacity="1.00" d=" M 378.47 1200.50 C 382.18 1197.57 386.70 1196.03 391.03 1194.30 C 390.22 1198.87 389.51 1203.46 388.61 1208.01 C 388.58 1209.28 387.29 1209.74 386.43 1210.39 C 384.09 1211.76 381.66 1213.23 378.92 1213.53 C 376.45 1213.71 374.49 1211.35 374.38 1209.04 C 374.03 1205.69 375.89 1202.49 378.47 1200.50 Z" />
<path fill="#ffffff" opacity="1.00" d=" M 753.05 1203.05 C 756.66 1198.26 762.71 1196.49 768.03 1194.30 C 767.22 1198.87 766.50 1203.45 765.61 1208.01 C 765.49 1209.53 763.80 1210.00 762.76 1210.80 C 760.13 1212.16 757.15 1214.26 754.07 1213.20 C 750.35 1211.24 750.84 1205.97 753.05 1203.05 Z" />
</g>
<g id="#0e55a1ff">
<path fill="#0e55a1" opacity="1.00" d=" M 570.80 27.52 C 616.31 28.36 661.77 32.27 706.83 38.66 C 736.75 43.05 766.53 48.72 795.65 56.97 C 765.52 135.67 736.30 214.72 708.17 294.16 C 678.91 376.52 652.11 459.73 624.58 542.68 C 611.28 583.09 597.96 623.48 584.61 663.87 C 572.17 701.09 560.05 738.43 546.81 775.38 C 554.73 526.09 562.87 276.81 570.80 27.52 Z" />
<path fill="#0e55a1" opacity="1.00" d=" M 321.50 714.50 C 348.00 714.50 374.50 714.50 401.00 714.50 C 401.02 816.01 400.97 917.51 401.02 1019.01 C 402.07 1028.33 401.10 1037.74 401.65 1047.09 C 402.43 1053.03 401.56 1059.05 402.45 1064.99 C 402.24 1071.51 403.27 1077.98 402.98 1084.51 C 379.52 1084.51 356.06 1084.47 332.59 1084.52 C 331.06 1071.92 329.91 1059.26 328.86 1046.61 C 322.89 1056.37 315.62 1065.47 306.29 1072.24 C 292.35 1082.63 275.31 1088.59 258.03 1089.97 C 251.67 1090.05 245.30 1089.98 238.94 1090.00 C 212.33 1087.92 187.02 1074.27 170.11 1053.71 C 150.53 1030.46 141.04 1000.05 139.50 970.02 C 139.67 964.26 138.32 958.52 139.39 952.79 C 139.65 932.28 143.65 911.72 151.74 892.83 C 159.50 874.99 171.24 858.71 186.63 846.69 C 201.69 834.74 220.07 827.11 239.13 824.69 C 246.71 823.53 254.40 824.13 262.04 824.01 C 280.48 825.24 299.61 830.59 313.43 843.43 C 316.48 846.21 318.91 849.58 321.44 852.82 C 321.58 806.71 321.46 760.61 321.50 714.50 M 264.49 885.62 C 248.46 888.20 235.32 900.20 228.66 914.64 C 220.26 932.28 218.62 952.48 220.84 971.69 C 222.89 987.16 228.43 1003.05 240.14 1013.88 C 257.39 1030.70 288.08 1031.54 305.40 1014.37 C 316.32 1004.41 320.67 989.34 321.49 975.01 C 321.52 964.00 321.49 952.99 321.50 941.99 C 321.58 934.45 321.45 926.75 319.35 919.46 C 316.16 909.33 310.14 899.85 301.46 893.59 C 291.10 885.65 277.17 883.06 264.49 885.62 Z" />
<path fill="#0e55a1" opacity="1.00" d=" M 690.00 714.50 C 716.67 714.50 743.33 714.50 770.00 714.50 C 769.99 837.84 770.02 961.18 769.98 1084.51 C 743.33 1084.49 716.67 1084.50 690.01 1084.51 C 689.98 961.17 690.01 837.84 690.00 714.50 Z" />
<path fill="#0e55a1" opacity="1.00" d=" M 486.69 845.67 C 505.58 831.28 529.54 824.68 553.04 823.98 C 579.91 823.28 607.53 826.80 632.00 838.45 C 627.28 856.87 622.52 875.29 617.80 893.71 C 602.12 885.45 584.75 880.31 567.06 879.04 C 557.55 878.60 547.27 879.45 539.31 885.19 C 531.19 891.09 529.85 904.59 537.60 911.37 C 546.34 919.00 557.75 922.45 568.36 926.64 C 582.63 931.48 596.84 937.02 609.42 945.44 C 620.29 952.78 629.97 962.41 635.69 974.35 C 644.36 992.97 645.10 1014.98 638.40 1034.33 C 631.34 1054.65 614.42 1070.42 594.93 1078.82 C 583.00 1084.24 570.11 1087.24 557.15 1088.93 C 544.52 1090.80 531.74 1089.70 519.03 1090.02 C 494.99 1088.55 470.88 1083.23 449.35 1072.18 C 454.31 1053.13 459.05 1034.01 463.66 1014.86 C 486.79 1027.01 512.83 1035.26 539.19 1033.93 C 546.40 1033.22 554.05 1031.70 559.75 1026.95 C 565.36 1022.44 566.72 1014.41 565.16 1007.71 C 564.04 1002.66 560.15 998.84 556.04 996.02 C 546.63 990.25 536.08 986.77 525.68 983.30 C 510.98 978.05 496.59 971.41 484.20 961.80 C 472.59 953.05 462.94 941.16 458.63 927.14 C 455.33 917.16 455.47 906.42 456.69 896.10 C 459.36 876.14 470.59 857.68 486.69 845.67 Z" />
</g>
<g id="#7d5e25ff">
<path fill="#7d5e25" opacity="1.00" d=" M 396.99 34.88 C 432.62 30.85 468.43 28.30 504.28 27.49 C 512.62 276.73 521.09 525.98 528.88 775.25 C 481.93 635.81 435.15 496.32 388.21 356.87 C 367.02 296.47 345.62 236.14 323.96 175.90 C 309.39 135.58 294.83 95.25 279.47 55.22 C 318.09 45.61 357.49 39.51 396.99 34.88 Z" />
</g>
<g id="#e07929ff">
<path fill="#e07929" opacity="1.00" d=" M 851.06 69.76 C 885.86 81.09 920.25 93.70 954.11 107.60 C 980.61 118.55 1006.83 130.30 1032.04 144.00 C 1044.26 150.69 1056.25 157.85 1067.55 166.03 C 1024.36 199.61 984.13 236.83 945.39 275.41 C 896.87 324.16 851.30 375.86 809.25 430.30 C 741.08 518.64 675.00 608.59 610.89 699.92 C 592.72 725.95 574.56 751.99 557.27 778.61 C 583.25 703.78 611.01 629.57 639.79 555.77 C 669.69 479.21 701.21 403.28 734.44 328.10 C 752.86 286.14 771.50 244.27 790.57 202.59 C 806.15 168.32 822.38 134.36 838.04 100.13 C 842.59 90.10 846.96 79.98 851.06 69.76 Z" />
</g>
<g id="#9e3521ff">
<path fill="#9e3521" opacity="1.00" d=" M 53.69 137.67 C 107.59 109.03 164.91 87.03 223.72 70.82 C 275.60 185.18 327.21 299.68 377.08 414.93 C 410.07 491.52 442.11 568.55 471.45 646.62 C 487.77 690.27 503.36 734.22 516.86 778.84 C 472.76 714.17 428.53 649.59 383.32 585.70 C 370.30 567.37 357.24 549.08 343.80 531.07 C 333.36 516.97 322.22 503.41 311.58 489.47 C 246.52 405.02 179.02 322.00 102.47 247.60 C 72.31 218.38 40.71 190.56 6.86 165.67 C 21.85 155.35 37.66 146.28 53.69 137.67 Z" />
</g>
<g id="#ff0000ff">
<path fill="#ff0000" opacity="1.00" d=" M 291.26 1151.30 C 295.43 1149.39 299.84 1148.07 304.10 1146.37 C 306.14 1145.60 309.38 1144.38 310.41 1147.20 C 306.84 1169.17 302.48 1191.03 299.05 1213.02 C 298.26 1216.33 301.89 1216.41 304.14 1216.74 C 305.88 1217.60 305.28 1219.47 305.10 1221.01 C 298.09 1221.00 291.08 1220.98 284.07 1221.02 C 282.58 1220.92 280.75 1221.37 279.80 1219.88 C 279.61 1218.75 279.66 1217.64 279.97 1216.54 C 281.62 1216.43 283.34 1216.57 284.94 1216.05 C 287.09 1214.85 287.44 1212.17 287.97 1210.01 C 290.36 1196.67 292.67 1183.32 295.05 1169.98 C 295.87 1164.85 297.13 1159.76 297.09 1154.55 C 295.21 1154.82 293.36 1155.26 291.54 1155.80 C 291.06 1154.32 290.09 1152.71 291.26 1151.30 Z" />
<path fill="#ff0000" opacity="1.00" d=" M 445.85 1151.54 C 452.23 1149.59 458.21 1146.16 464.88 1145.31 C 466.82 1147.11 465.73 1149.64 465.42 1151.88 C 462.98 1165.40 460.64 1178.95 458.24 1192.48 C 457.29 1199.23 455.28 1205.91 455.35 1212.75 C 456.90 1214.39 459.85 1211.47 461.44 1213.67 C 461.67 1214.32 462.15 1215.62 462.39 1216.28 C 455.98 1218.46 449.83 1221.94 443.03 1222.64 C 441.87 1221.17 442.00 1219.44 442.35 1217.75 C 437.81 1221.37 431.75 1223.43 425.97 1222.10 C 419.28 1220.72 414.41 1214.60 413.20 1208.08 C 411.05 1195.32 417.57 1182.23 427.54 1174.45 C 433.90 1169.62 443.48 1167.36 450.47 1172.16 C 451.34 1166.35 452.84 1160.60 452.89 1154.70 C 451.30 1154.83 449.73 1155.09 448.15 1155.20 C 446.30 1154.88 446.30 1152.93 445.85 1151.54 M 437.47 1176.64 C 429.37 1180.36 426.42 1189.87 425.70 1198.10 C 425.05 1203.65 426.80 1210.32 432.24 1212.88 C 436.27 1214.69 440.67 1212.40 443.60 1209.62 C 445.09 1204.60 445.48 1199.31 446.56 1194.20 C 447.19 1189.55 449.12 1184.56 447.02 1180.02 C 445.49 1176.47 440.90 1174.98 437.47 1176.64 Z" />
<path fill="#ff0000" opacity="1.00" d=" M 534.03 1151.66 C 539.37 1149.70 544.66 1147.61 550.04 1145.76 C 551.73 1145.03 553.59 1145.52 554.72 1146.98 C 552.92 1156.49 551.51 1166.08 549.55 1175.56 L 548.66 1176.49 C 550.26 1176.71 551.19 1175.08 552.42 1174.35 C 557.17 1170.36 564.21 1167.85 570.10 1170.80 C 574.40 1173.06 575.67 1178.37 575.42 1182.87 C 574.72 1193.37 571.61 1203.56 570.75 1214.03 C 570.44 1217.58 575.53 1215.27 576.43 1218.14 C 576.37 1218.85 576.26 1220.29 576.20 1221.00 C 568.15 1220.92 560.09 1221.14 552.05 1220.91 C 550.18 1220.14 550.69 1218.08 550.90 1216.55 C 553.95 1216.64 558.34 1216.75 559.04 1212.89 C 560.80 1204.35 562.21 1195.74 563.62 1187.14 C 563.97 1184.23 564.80 1179.57 561.02 1178.62 C 555.96 1177.76 551.81 1181.40 548.17 1184.35 C 546.44 1194.24 544.35 1204.09 543.13 1214.06 C 543.00 1216.80 546.54 1216.11 548.31 1216.75 C 550.06 1217.57 549.40 1219.49 549.30 1221.00 C 542.20 1221.01 535.10 1220.97 528.00 1221.02 C 526.49 1220.93 524.68 1221.34 523.67 1219.90 C 523.66 1219.10 523.62 1217.48 523.60 1216.67 C 526.70 1216.56 531.07 1216.39 531.56 1212.45 C 534.25 1199.39 536.23 1186.18 538.66 1173.07 C 539.60 1166.94 541.24 1160.87 541.22 1154.64 C 539.31 1154.61 537.11 1155.83 535.38 1154.73 C 535.04 1153.96 534.37 1152.43 534.03 1151.66 Z" />
<path fill="#ff0000" opacity="1.00" d=" M 941.16 1156.92 C 941.31 1151.91 945.63 1146.71 950.97 1147.60 C 955.66 1148.36 956.56 1153.99 955.40 1157.81 C 951.34 1172.79 946.81 1187.65 942.63 1202.60 C 940.83 1202.54 937.93 1202.65 938.19 1200.09 C 939.16 1185.69 940.04 1171.29 941.16 1156.92 Z" />
<path fill="#ff0000" opacity="1.00" d=" M 118.27 1149.02 C 127.16 1149.05 136.06 1148.87 144.94 1149.09 C 146.80 1149.82 146.28 1151.88 146.09 1153.44 C 143.06 1153.14 138.04 1153.74 138.65 1157.95 C 140.35 1171.65 143.24 1185.20 145.46 1198.84 C 150.44 1189.29 155.51 1179.78 160.44 1170.21 C 159.26 1165.47 159.39 1160.33 157.14 1155.93 C 155.83 1153.18 152.22 1154.04 150.39 1151.96 C 150.54 1151.22 150.86 1149.74 151.02 1149.00 C 160.32 1149.07 169.64 1148.86 178.94 1149.09 C 180.84 1149.81 180.26 1151.90 180.09 1153.47 C 177.16 1153.37 172.53 1153.07 172.08 1157.00 C 171.66 1163.11 173.47 1169.09 174.35 1175.10 C 175.74 1183.06 177.18 1191.02 178.56 1198.99 C 184.20 1188.13 189.89 1177.28 195.56 1166.43 C 197.24 1163.06 199.21 1159.76 200.07 1156.08 C 200.09 1153.19 196.39 1153.90 194.51 1153.24 C 192.85 1152.32 193.46 1150.47 193.60 1149.00 C 200.44 1149.03 207.27 1148.94 214.11 1149.02 C 215.47 1148.70 216.25 1149.80 217.06 1150.66 C 216.91 1151.34 216.63 1152.69 216.49 1153.37 C 212.05 1152.87 208.49 1155.90 206.69 1159.70 C 195.77 1180.61 184.92 1201.56 174.05 1222.50 C 172.64 1222.48 171.23 1222.48 169.82 1222.50 C 167.37 1208.86 164.89 1195.22 162.46 1181.58 C 155.15 1195.18 147.99 1208.87 140.73 1222.50 C 139.39 1222.48 138.06 1222.48 136.73 1222.49 C 132.76 1200.70 128.85 1178.89 124.85 1157.11 C 124.57 1154.25 121.63 1153.45 119.22 1153.34 C 118.87 1152.98 118.17 1152.25 117.82 1151.89 C 117.94 1151.17 118.16 1149.74 118.27 1149.02 Z" />
<path fill="#ff0000" opacity="1.00" d=" M 516.02 1156.95 C 516.65 1154.67 519.92 1155.02 520.66 1157.11 C 520.13 1161.77 519.03 1166.36 518.32 1171.01 C 521.79 1171.57 526.32 1169.55 528.96 1172.56 C 528.62 1174.18 528.32 1175.84 528.02 1177.50 C 524.39 1177.49 520.77 1177.49 517.16 1177.51 C 515.40 1187.68 513.52 1197.84 511.81 1208.03 C 511.67 1209.62 511.02 1212.27 513.07 1212.96 C 515.76 1213.42 517.91 1211.42 519.49 1209.53 C 520.14 1209.52 521.44 1209.50 522.09 1209.49 C 522.43 1210.06 523.09 1211.20 523.42 1211.76 C 520.70 1216.40 516.57 1220.57 511.14 1221.72 C 507.24 1222.69 502.49 1221.11 500.76 1217.31 C 499.46 1214.36 500.01 1211.02 500.42 1207.95 C 502.20 1197.79 504.01 1187.65 505.78 1177.49 C 503.93 1177.47 502.09 1177.49 500.24 1177.52 C 499.87 1177.11 499.11 1176.31 498.74 1175.91 C 498.83 1175.28 499.00 1174.03 499.09 1173.40 C 506.62 1170.33 512.27 1164.00 516.02 1156.95 Z" />
<path fill="#ff0000" opacity="1.00" d=" M 213.98 1177.97 C 220.80 1170.49 232.79 1166.72 242.04 1171.82 C 248.94 1175.84 250.28 1184.78 248.65 1191.98 C 237.88 1192.03 227.11 1191.96 216.33 1192.02 C 215.79 1197.25 215.87 1203.21 219.73 1207.27 C 223.65 1211.93 231.02 1212.02 235.89 1208.83 C 239.01 1206.87 240.67 1203.49 242.83 1200.65 C 244.44 1199.77 245.75 1201.08 247.05 1201.85 C 244.81 1209.12 240.04 1215.69 233.49 1219.65 C 227.19 1223.32 218.62 1223.68 212.54 1219.35 C 207.39 1215.66 204.73 1209.26 204.85 1203.03 C 204.96 1194.01 207.73 1184.66 213.98 1177.97 M 226.36 1176.51 C 222.25 1177.95 219.38 1181.57 217.75 1185.48 C 223.86 1185.53 229.98 1185.48 236.10 1185.50 C 236.09 1183.07 236.41 1180.31 234.63 1178.38 C 232.69 1175.95 229.16 1175.40 226.36 1176.51 Z" />
<path fill="#ff0000" opacity="1.00" d=" M 324.48 1177.46 C 331.34 1170.31 343.05 1166.83 352.08 1171.84 C 358.95 1175.87 360.28 1184.79 358.65 1191.98 C 347.88 1192.03 337.11 1191.96 326.33 1192.02 C 325.84 1197.04 325.81 1202.70 329.30 1206.76 C 332.47 1211.01 338.52 1211.99 343.28 1210.14 C 347.66 1208.60 350.43 1204.56 352.54 1200.66 C 354.23 1200.09 355.70 1200.85 357.05 1201.83 C 354.82 1209.11 350.05 1215.68 343.50 1219.65 C 337.21 1223.31 328.67 1223.68 322.60 1219.39 C 317.40 1215.70 314.72 1209.26 314.85 1202.99 C 314.97 1193.76 317.89 1184.15 324.48 1177.46 M 336.35 1176.52 C 332.25 1177.96 329.38 1181.57 327.75 1185.48 C 333.86 1185.53 339.98 1185.48 346.10 1185.51 C 346.09 1183.08 346.41 1180.34 344.66 1178.41 C 342.72 1175.96 339.17 1175.40 336.35 1176.52 Z" />
<path fill="#ff0000" opacity="1.00" d=" M 376.10 1173.09 C 382.26 1169.15 390.24 1168.65 397.17 1170.57 C 401.36 1171.63 404.65 1175.55 404.47 1179.96 C 403.79 1191.38 400.11 1202.43 399.54 1213.85 C 401.45 1212.78 403.28 1211.57 405.06 1210.30 C 405.63 1210.65 406.77 1211.35 407.34 1211.70 C 407.21 1212.45 406.95 1213.93 406.81 1214.67 C 402.87 1218.58 398.04 1223.03 392.05 1222.39 C 388.95 1222.08 387.57 1219.02 387.30 1216.29 C 383.27 1219.06 379.09 1222.26 373.98 1222.47 C 369.66 1222.92 364.99 1220.71 363.31 1216.57 C 360.94 1210.53 363.08 1203.18 368.05 1199.09 C 375.02 1193.21 383.94 1190.52 392.33 1187.36 C 392.60 1184.07 393.87 1180.19 391.69 1177.33 C 388.78 1175.01 383.98 1175.65 381.73 1178.61 C 380.04 1181.32 380.96 1185.17 378.49 1187.54 C 375.95 1190.51 369.98 1190.14 369.01 1185.92 C 368.00 1180.58 371.89 1175.82 376.10 1173.09 M 378.47 1200.50 C 375.89 1202.49 374.03 1205.69 374.38 1209.04 C 374.49 1211.35 376.45 1213.71 378.92 1213.53 C 381.66 1213.23 384.09 1211.76 386.43 1210.39 C 387.29 1209.74 388.58 1209.28 388.61 1208.01 C 389.51 1203.46 390.22 1198.87 391.03 1194.30 C 386.70 1196.03 382.18 1197.57 378.47 1200.50 Z" />
<path fill="#ff0000" opacity="1.00" d=" M 588.43 1186.34 C 592.26 1177.67 600.48 1170.66 610.09 1169.67 C 616.00 1168.86 622.73 1170.59 626.25 1175.73 C 629.70 1180.38 629.62 1186.53 628.65 1191.98 C 617.88 1192.03 607.11 1191.97 596.34 1192.02 C 595.78 1197.22 595.87 1203.15 599.69 1207.22 C 603.59 1211.92 610.98 1212.04 615.86 1208.85 C 618.88 1206.95 620.57 1203.72 622.60 1200.92 C 624.18 1199.45 625.68 1201.10 627.06 1201.92 C 624.81 1208.93 620.32 1215.31 614.07 1219.30 C 608.28 1222.94 600.51 1223.66 594.37 1220.49 C 589.08 1217.64 585.63 1211.97 585.04 1206.05 C 584.34 1199.33 585.75 1192.50 588.43 1186.34 M 606.32 1176.53 C 602.23 1177.97 599.38 1181.58 597.75 1185.48 C 603.86 1185.53 609.98 1185.48 616.10 1185.50 C 616.09 1183.07 616.41 1180.31 614.63 1178.38 C 612.68 1175.94 609.13 1175.40 606.32 1176.53 Z" />
<path fill="#ff0000" opacity="1.00" d=" M 749.76 1175.82 C 755.15 1170.21 763.52 1168.74 770.97 1169.83 C 774.67 1170.36 778.74 1171.92 780.46 1175.52 C 782.46 1179.74 780.97 1184.50 780.39 1188.88 C 779.11 1197.19 776.98 1205.41 776.50 1213.82 C 778.44 1212.79 780.28 1211.59 782.06 1210.31 C 782.65 1210.67 783.85 1211.39 784.45 1211.75 C 784.24 1215.34 781.04 1217.38 778.47 1219.38 C 775.32 1221.61 771.01 1223.60 767.24 1221.76 C 765.11 1220.78 764.72 1218.31 764.31 1216.29 C 760.26 1219.07 756.07 1222.28 750.95 1222.47 C 746.63 1222.91 741.98 1220.70 740.31 1216.56 C 737.94 1210.53 740.08 1203.19 745.04 1199.10 C 752.01 1193.21 760.94 1190.52 769.33 1187.36 C 769.59 1184.08 770.89 1180.17 768.67 1177.32 C 765.56 1174.82 760.24 1175.78 758.27 1179.30 C 757.32 1182.03 757.66 1185.35 755.48 1187.55 C 753.11 1190.21 747.85 1190.31 746.30 1186.73 C 744.87 1182.81 746.98 1178.58 749.76 1175.82 M 753.05 1203.05 C 750.84 1205.97 750.35 1211.24 754.07 1213.20 C 757.15 1214.26 760.13 1212.16 762.76 1210.80 C 763.80 1210.00 765.49 1209.53 765.61 1208.01 C 766.50 1203.45 767.22 1198.87 768.03 1194.30 C 762.71 1196.49 756.66 1198.26 753.05 1203.05 Z" />
<path fill="#ff0000" opacity="1.00" d=" M 664.01 1175.02 C 664.23 1173.65 664.48 1172.33 664.72 1171.00 C 671.70 1171.13 678.71 1170.74 685.68 1171.17 C 687.14 1172.12 686.65 1173.79 686.53 1175.25 C 685.09 1175.49 683.61 1175.64 682.25 1176.20 C 681.07 1177.89 681.67 1180.06 681.93 1181.96 C 683.38 1189.49 684.82 1197.03 686.26 1204.57 C 690.02 1198.52 693.95 1192.58 697.60 1186.47 C 697.74 1183.62 696.76 1180.74 696.03 1178.00 C 695.54 1175.77 693.14 1175.67 691.34 1175.29 C 691.04 1174.90 690.45 1174.13 690.15 1173.74 C 690.32 1172.81 690.50 1171.90 690.69 1171.00 C 698.42 1171.08 706.17 1170.85 713.90 1171.09 C 715.68 1171.80 715.27 1173.77 715.12 1175.30 C 712.55 1175.65 708.54 1175.54 708.28 1179.00 C 709.64 1187.15 711.62 1195.20 713.25 1203.31 C 716.32 1197.73 719.41 1192.15 722.48 1186.57 C 724.35 1183.12 726.53 1179.79 727.59 1175.97 C 726.75 1175.82 725.07 1175.51 724.23 1175.36 C 723.93 1174.97 723.33 1174.17 723.03 1173.78 C 723.13 1173.10 723.33 1171.74 723.43 1171.06 C 728.83 1171.06 734.25 1170.77 739.64 1171.17 C 741.06 1172.07 740.64 1173.69 740.54 1175.11 C 737.44 1175.64 734.74 1177.49 733.30 1180.31 C 725.39 1194.34 717.58 1208.43 709.72 1222.49 C 708.32 1222.48 706.93 1222.48 705.55 1222.50 C 703.60 1213.31 701.69 1204.12 699.75 1194.94 C 693.93 1204.12 688.18 1213.33 682.36 1222.51 C 681.39 1222.51 679.44 1222.50 678.47 1222.50 C 675.97 1209.99 673.40 1197.49 670.94 1184.97 C 670.36 1182.37 670.09 1179.63 668.80 1177.27 C 667.66 1175.79 665.62 1175.64 664.01 1175.02 Z" />
<path fill="#ff0000" opacity="1.00" d=" M 792.14 1171.00 C 799.77 1171.07 807.40 1170.85 815.03 1171.09 C 816.76 1171.90 816.43 1173.85 816.20 1175.43 C 814.14 1175.62 811.39 1175.01 810.18 1177.17 C 809.45 1180.28 810.92 1183.34 811.73 1186.30 C 813.47 1191.81 815.17 1197.34 816.90 1202.87 C 821.05 1195.69 825.22 1188.52 829.42 1181.38 C 830.45 1179.67 831.11 1177.79 831.73 1175.93 C 828.82 1176.04 826.44 1173.98 827.68 1171.00 C 833.11 1171.08 838.55 1170.83 843.98 1171.09 C 845.87 1171.56 845.48 1173.74 845.33 1175.20 C 842.77 1175.45 840.18 1176.45 838.93 1178.86 C 829.06 1195.63 819.21 1212.42 809.33 1229.20 C 805.54 1235.57 799.68 1241.44 792.15 1242.85 C 788.23 1243.77 783.46 1241.35 783.13 1237.07 C 782.52 1232.23 787.42 1227.99 792.12 1229.15 C 794.79 1229.42 797.63 1232.28 800.04 1229.89 C 804.08 1226.31 805.98 1221.03 808.92 1216.61 C 805.32 1204.73 801.83 1192.82 798.03 1181.01 C 797.17 1177.79 794.87 1175.36 791.47 1175.00 C 791.68 1173.65 791.90 1172.32 792.14 1171.00 Z" />
<path fill="#ff0000" opacity="1.00" d=" M 845.31 1208.42 C 848.77 1206.97 853.34 1209.04 853.86 1212.92 C 855.18 1219.14 847.31 1225.16 841.91 1221.29 C 837.23 1217.65 840.08 1209.87 845.31 1208.42 Z" />
<path fill="#ff0000" opacity="1.00" d=" M 874.22 1208.45 C 877.66 1206.95 882.28 1208.97 882.84 1212.86 C 884.25 1219.14 876.21 1225.26 870.81 1221.21 C 866.29 1217.55 869.08 1209.94 874.22 1208.45 Z" />
<path fill="#ff0000" opacity="1.00" d=" M 903.21 1208.45 C 906.67 1206.94 911.30 1208.99 911.85 1212.88 C 913.21 1219.12 905.32 1225.18 899.90 1221.29 C 895.26 1217.67 898.04 1209.95 903.21 1208.45 Z" />
<path fill="#ff0000" opacity="1.00" d=" M 936.35 1208.49 C 939.84 1206.91 944.51 1208.98 945.13 1212.90 C 946.51 1219.22 938.28 1225.35 932.94 1221.09 C 928.67 1217.39 931.39 1210.09 936.35 1208.49 Z" />
</g>
</svg>
